<svg xmlns="http://www.w3.org/2000/svg" width="113.094" height="59.03"><path d="M.734 20.617v2.509l10.556-4.445v36.715L1.284 46.04 0 48.319l11.455 10.712 1.768-.745V17.867l10.555-4.445v-2.509Zm27.849 15.399L47.76 27.94v5.392l-19.177 8.075Zm0-7.9L47.76 20.04v5.392l-19.177 8.074Zm0-7.9L47.76 12.14v5.389l-19.177 8.076ZM49.693-.001l-23.044 9.7v2.51l10.556-4.442v6.306l-10.556 4.446v26.213l23.044-9.7V8.814l-10.555 4.445V6.954L49.693 2.51ZM29.434 46.805a1.726 1.726 0 0 0-.669.143 4.24 4.24 0 0 0-2.115 3.725c0 1.292.661 2.194 1.608 2.195a1.737 1.737 0 0 0 .668-.144A4.237 4.237 0 0 0 31.041 49c0-1.292-.662-2.2-1.608-2.2m18.652-7.849a1.73 1.73 0 0 0-.669.143 4.24 4.24 0 0 0-2.115 3.725c0 1.291.662 2.195 1.608 2.195a1.725 1.725 0 0 0 .669-.144 4.239 4.239 0 0 0 2.115-3.725c0-1.292-.662-2.194-1.609-2.194" fill="#65a017"/><path d="m64.134 25.484.628-.262v3.521l-.628.262Zm6.083-2.537 2.907-1.213v.533l-1.141.476v2.989l-.629.262v-2.989l-1.136.474Zm9.311-3.884.671-.28 1.382 2.945-.676.282-.336-.793-1.433.6-.336 1.074-.65.271Zm-.221 2.214 1.1-.457-.538-1.29-.015.006Zm7.644-5.309 1.489-.621a1.746 1.746 0 0 1 .713-.16.8.8 0 0 1 .492.173.934.934 0 0 1 .285.441 2.073 2.073 0 0 1 .094.648 2.886 2.886 0 0 1-.094.724 2.535 2.535 0 0 1-.285.678 2.429 2.429 0 0 1-.492.583 2.567 2.567 0 0 1-.713.435l-1.489.622Zm.631 2.756.616-.257a2.381 2.381 0 0 0 .6-.347 1.635 1.635 0 0 0 .367-.42 1.487 1.487 0 0 0 .182-.474 2.933 2.933 0 0 0 .047-.516 2.3 2.3 0 0 0-.047-.476.584.584 0 0 0-.182-.325.544.544 0 0 0-.367-.113 1.694 1.694 0 0 0-.6.154l-.616.257Zm8.989-6.769.666-.279 1.384 2.944-.675.281-.335-.792-1.435.6-.337 1.073-.647.27Zm-.222 2.214 1.1-.457-.539-1.29-.013.006Zm7.643-5.31.629-.262v1.6l1.6-2.269.775-.323-1.435 2 1.535 1.476-.785.327-1.176-1.191-.513.712v1.184l-.629.262Zm8.474-3.533.629-.262v3.521l-.629.263Z" fill="#1a1311"/></svg>