<svg version="1.0" xmlns="http://www.w3.org/2000/svg" width="480" height="480" viewBox="0 0 360 360"><path d="M203.9 16.1c-4.2 4.5-8.6 12.2-22.4 39.4-17.7 34.9-26 55.1-29.7 71.7l-1.3 5.7-6.9-5.5c-8.4-6.7-16.2-12-24.1-16.4-6.5-3.6-25.2-13-25.9-13-.3 0-8.7-4.1-18.8-9-19.3-9.6-24.6-11.5-28-10.4-4.5 1.4-1.4 12.5 15.7 55.9 6.6 16.7 20.2 45.4 23 48.6.8.8 1.5 1.9 1.5 2.3 0 .5 1.6 3 3.6 5.7l3.6 4.9-2.9 1c-1.5.6-3.7 1.4-4.8 1.9-1.1.5-3.6 1.4-5.5 2.1-1.9.7-4.4 1.6-5.5 2-1.1.5-5.6 2-10 3.5-7.3 2.5-24.5 8.8-37 13.6-4.5 1.7-9.7 3-19 4.6-4.7.8-9.5 3.1-9.5 4.5 0 7 20.8 19 49.6 28.7 24.8 8.3 45.3 13.1 56 13.1 3 0 5.4.2 5.4.5 0 1.6-5 10.1-10.9 18.5-7.7 10.8-10.6 17.2-12 25.6-1.3 8.5-.7 20.8 1.3 23.8l1.6 2.5 7.1-5.4c7.6-5.6 18.1-11.3 26.4-14 5.9-2 16.3-7.1 18.6-9.1.8-.8 1.8-1.4 2.2-1.4.3 0 4.4-2.4 8.9-5.4 4.6-2.9 11-6.7 14.3-8.4l6-3 6 5.5c9.5 8.7 18.4 15.1 26.5 18.9 4.1 2 11.1 5.4 15.6 7.5 4.5 2.1 13.5 7.2 20 11.3 6.5 4.1 13.1 7.8 14.6 8.1 2.4.6 2.8.3 3.4-2 1.2-5-.4-19.7-3-27.3-1.4-4.3-4.8-10.8-8.3-15.8-7-10.2-11.1-16.6-11.2-17.7-.1-.4 2.3-.4 5.2 0 7.1.8 9 .9 17.4 0 7.6-.7 25.1-4 31.8-5.9 2.2-.6 4.5-1.2 5-1.4 2.6-.5 13.8-3.8 21-6.1 14.4-4.6 29.7-13.4 37.6-21.5 6.6-6.8 5.8-7.6-12.2-12.2-15.9-4.1-20.6-5.7-36.3-12.5-12-5.2-27-10.6-31.6-11.4-2.8-.6-7.6-1.7-10.3-2.4-1.5-.4-1.4-.7 1-2.6 1.5-1.2 3.3-2.5 3.8-2.9.6-.5 6.4-4.9 13-9.9 20.8-15.7 27.8-23.1 42.1-44.4 5.2-7.7 11.7-17.2 14.4-21.1 6.5-9.3 6.7-11.2 1.5-13.1-6.1-2.2-25.7-2.1-40 .2-6 1-9 1.5-11.5 2-2.4.5-11.7 2.2-17 3.2-15 2.7-37.1 10.7-45.3 16.5l-2.7 2 .7-7.4c1-9.4 1-39.8 0-50.8-.4-4.7-1.8-13.9-3.2-20.5-3.1-14.7-4.3-20.9-5-25.5-1-6.9-2.8-13.6-4.7-18.3-2.5-5.7-4.7-6.1-8.9-1.6z"/></svg>