<svg xmlns="http://www.w3.org/2000/svg" width="19.281" height="16.707"><g fill="#d91817"><path d="M.646 16.707A.643.643 0 0 1 0 16.068a.724.724 0 0 1 0-.075l.495-4.5a.641.641 0 0 1 .186-.379L11.2.601a2.056 2.056 0 0 1 2.908 0l2 2a2.056 2.056 0 0 1 0 2.908L5.6 16.02a.641.641 0 0 1-.379.186l-4.5.495Zm1.112-4.851-.386 3.483 3.483-.386L15.2 4.607a.771.771 0 0 0 0-1.09l-2-2a.771.771 0 0 0-1.09 0Z"/><path d="M14.141 7.203a.642.642 0 0 1-.456-.186l-3.99-4a.645.645 0 1 1 .912-.912l4 4a.642.642 0 0 1 0 .909.643.643 0 0 1-.469.186m-9.443 3.91 5.003-5.003.908.909-5.002 5.003Zm13.944 5.597H8.358a.643.643 0 1 1 0-1.285h10.281a.643.643 0 0 1 0 1.285"/></g></svg>