<svg xmlns="http://www.w3.org/2000/svg" width="18.06" height="14.167"><path d="M15.03 13.102c0 .208.146.854 0 1s.208 0 0 0h-4c-.1 0 .073.073 0 0s0 .1 0 0v-4c0-.1-.927.073-1 0s.1 0 0 0h-2c-.1 0 .073-.073 0 0s0-.1 0 0v4c0 .1-.927-.073-1 0s.1 0 0 0h-3c-.208 0-.854.146-1 0s0-.792 0-1v-4a4.012 4.012 0 0 1 0-1l6-4c.083-.062-.083 0 0 0s-.083-.062 0 0l6 4a4.012 4.012 0 0 1 0 1Zm3-6c.063.062-.01-.1 0 0s.063-.083 0 0l-1 1c-.062.083.1 1 0 1s.083-.937 0-1l-8-6c-.083-.062.083 0 0 0s.083-.062 0 0l-8 6c-.083.063.1 1 0 1s.062-.917 0-1l-1-1c-.062-.083-.01.1 0 0s-.062.062 0 0l8-7c.271-.229.646 0 1 0s.708-.229 1 0l3 3v-3c0-.1-.073.073 0 0s-.1 0 0 0h2c.1 0-.073-.073 0 0s0-.1 0 0v5Z" fill="#d91817"/></svg>