<svg xmlns="http://www.w3.org/2000/svg" width="12" height="16"><path fill="#d91817" d="M11.56 3.06A1.45 1.45 0 0 1 12 4.12V14.5a1.45 1.45 0 0 1-.44 1.06 1.45 1.45 0 0 1-1.06.44h-9a1.45 1.45 0 0 1-1.06-.44A1.45 1.45 0 0 1 0 14.5v-13A1.45 1.45 0 0 1 .44.44 1.45 1.45 0 0 1 1.5 0h6.38a1.45 1.45 0 0 1 1.06.44ZM10.37 4 8 1.62V4ZM1.5 14.5h9v-9H7.25a.72.72 0 0 1-.53-.22.72.72 0 0 1-.22-.53V1.5h-5ZM9.31 10a.66.66 0 0 1 .19.48.81.81 0 0 1-.17.52.63.63 0 0 1-.53.22 3.09 3.09 0 0 1-.85-.14 4.23 4.23 0 0 1-.92-.4 12.42 12.42 0 0 0-1.75.5l-.37.13a5.83 5.83 0 0 1-1.07 1.38 1.03 1.03 0 0 1-.73.31.62.62 0 0 1-.48-.27.65.65 0 0 1-.13-.45q.16-.69 1.6-1.44a24.46 24.46 0 0 0 1.12-2.3A4.3 4.3 0 0 1 5 6.43a.53.53 0 0 1 .38-.4.73.73 0 0 1 .59.04.68.68 0 0 1 .34.54 3.49 3.49 0 0 1-.15 1.7v.02A2.77 2.77 0 0 0 7.3 9.81q1.6-.22 2 .19Zm-6.19 2.44q0 .03.13-.06a2.17 2.17 0 0 0 .31-.32 5.87 5.87 0 0 0 .53-.71l-.12.09a2.83 2.83 0 0 0-.85 1ZM5.7 6.47q-.07 0-.07.5a1.97 1.97 0 0 0 .13.78 2.1 2.1 0 0 0 .1-.75q0-.53-.16-.53Zm-.78 4.28.37-.16a7.47 7.47 0 0 1 1.34-.43 3.15 3.15 0 0 1-.93-1.13 10.64 10.64 0 0 1-.78 1.72Zm4.12-.16q.06-.03-.02-.1a.72.72 0 0 0-.35-.13 3.64 3.64 0 0 0-.79-.02 3.92 3.92 0 0 0 .75.25.6.6 0 0 0 .32.03.13.13 0 0 0 .1-.03Z"/></svg>