<svg xmlns="http://www.w3.org/2000/svg" width="17" height="12.75"><path d="M15.406 0a1.537 1.537 0 0 1 1.129.465A1.537 1.537 0 0 1 17 1.594v9.562a1.537 1.537 0 0 1-.465 1.129 1.537 1.537 0 0 1-1.129.465H1.594a1.537 1.537 0 0 1-1.129-.465A1.537 1.537 0 0 1 0 11.156V1.594A1.537 1.537 0 0 1 .465.465 1.537 1.537 0 0 1 1.594 0Zm0 1.594H1.594v1.361q1.162.93 4.482 3.52l.3.266a8.115 8.115 0 0 0 1.063.8 2.02 2.02 0 0 0 1.061.428 2.02 2.02 0 0 0 1.063-.432 8.115 8.115 0 0 0 1.062-.8l.3-.266q3.32-2.557 4.482-3.52ZM1.594 11.156h13.812V4.98l-3.851 3.055a9.629 9.629 0 0 1-1.361 1 3.344 3.344 0 0 1-1.694.528 3.519 3.519 0 0 1-1.727-.531 13.12 13.12 0 0 1-1.361-1L1.594 4.98Z" fill="#242424"/></svg>